# xmcd
#
# Track frame offsets: 
#        150
#        21759
#        36692
#        59823
#        77450
#        113582
#        129276
#        148425
#        182448
#        208332
#
# Disc length: 3187 seconds
#
# Revision: 0
# Processed by: cddbd v1.5.2PL0 Copyright (c) Steve Scherf et al.
# Submitted via: ExactAudioCopy v0.95b3
#
DISCID=930c710a
DTITLE=Jo-El Sonnier - 1990-09-21: The Cubby Bear Lounge, Chicago, IL 
DTITLE=[CD2]
DYEAR=1990
DGENRE=Live Concert Recording
TTITLE0=Say You Love Me
TTITLE1=Ooh Ooh Ooh Ooh
TTITLE2=Have A Little Faith
TTITLE3=Solid Gold Plated Fool
TTITLE4=I Must Have Slipped Her Mind
TTITLE5=Louisiana Blues
TTITLE6=Rainin' In My Heart
TTITLE7=Tear Stained Letter
TTITLE8=Louisiana 1927
TTITLE9=Sugar Bee
EXTD=
EXTT0=
EXTT1=
EXTT2=
EXTT3=
EXTT4=
EXTT5=
EXTT6=
EXTT7=
EXTT8=
EXTT9=
PLAYORDER=
